<svg width="1200" height="1200" xmlns="http://www.w3.org/2000/svg" xmlns:xlink="http://www.w3.org/1999/xlink" version="1.1"><g transform="scale(14.392803890876907) translate(3.568750010596381, 2.8374968634711344)">                        <g fill="#fefefe"><path d="M2.28 47.22 c-1.14 -2.58 -1.68 -5.4 -1.68 -8.34 c0 -11.88 9.96 -21.48 21.18 -21.48 c6.96 0 12.72 3.42 15.78 7.44 l-0.18 0.24 c-3.36 -4.62 -9.18 -6.66 -14.46 -6.66 c-2.52 0 -4.86 0.42 -6.96 1.32 c-4.56 1.92 -7.8 5.28 -9.54 9.48 s-1.44 7.14 -1.44 7.62 c0 2.22 0.36 4.56 1.02 6.96 c2.7 9.42 9.36 15.24 17.82 15.24 c7.5 0 12.48 -4.26 15.54 -11.04 l0.24 0.06 c-3.06 6.72 -8.4 12.24 -18.36 12.24 c-8.4 0 -15.66 -5.4 -18.96 -13.08 z M37.777499999999996 59.94 l-7.44 0 c2.4 -0.48 3.54 -2.28 3.54 -3.42 l0 -38.52 l3.66 0 c1.74 3.18 3.48 6.36 5.22 9.6 c3 5.58 6.78 12.6 10.02 18.42 c3.42 -6 7.2 -12.96 10.2 -18.54 c1.74 -3.24 3.48 -6.42 5.16 -9.48 l3.78 0 l0 38.28 c0 2.22 1.62 3.36 3.72 3.66 l-12 0 c1.44 -0.18 3.72 -1.32 3.9 -3.66 l0 -36.48 c-1.62 2.94 -3.3 5.94 -4.98 9 c-2.88 5.28 -6.54 11.88 -9.6 17.46 c0.66 1.14 1.2 2.22 1.74 3.18 c1.2 2.22 1.98 4.68 1.98 6.12 c0 0.54 0.06 1.62 -0.9 2.82 c-0.9 1.14 -2.34 1.68 -3.72 1.68 c-1.86 0 -3.54 -0.96 -3.78 -2.94 c-0.06 -0.24 -0.06 -0.48 -0.06 -0.72 c0 -0.72 0.18 -1.8 0.66 -3 s1.14 -2.34 1.68 -3.3 l-16.38 -29.94 l0 36.36 c0.18 1.86 1.92 3.18 3.6 3.42 z M49.0575 53.88 c-0.36 0.78 -0.54 1.56 -0.54 2.34 c0 0.24 0.06 0.42 0.06 0.66 c0.18 1.62 1.2 2.64 2.34 2.64 c0.72 0 1.5 -0.42 2.04 -1.38 c0.24 -0.42 0.42 -0.96 0.42 -1.5 c0 -0.06 0.06 -0.72 -0.42 -1.98 c-0.48 -1.2 -1.2 -2.52 -1.92 -3.72 l-0.36 -0.54 c-0.06 0.12 -0.12 0.3 -0.3 0.54 c-0.48 1.02 -0.9 1.98 -1.32 2.94 z"/></g>        </g></svg>